<?xml version="1.0" standalone="no"?>
<!DOCTYPE svg PUBLIC "-//W3C//DTD SVG 20010904//EN"
 "http://www.w3.org/TR/2001/REC-SVG-20010904/DTD/svg10.dtd">
<svg version="1.0" xmlns="http://www.w3.org/2000/svg"
 width="531.000000pt" height="531.000000pt" viewBox="0 0 531.000000 531.000000"
 preserveAspectRatio="xMidYMid meet">
<metadata>
Created by potrace 1.14, written by Peter Selinger 2001-2017
</metadata>
<g transform="translate(0.000000,531.000000) scale(0.100000,-0.100000)"
fill="#000000" stroke="none">
<path d="M2493 5168 c-40 -44 -173 -231 -173 -244 0 -20 187 -104 230 -104 12
0 42 36 84 99 36 55 69 106 72 115 8 22 -4 38 -66 88 -92 75 -114 82 -147 46z"/>
<path d="M2743 5032 c-24 -15 -144 -208 -141 -227 2 -12 26 -32 66 -54 l62
-35 0 -68 c0 -58 3 -68 18 -68 9 0 23 9 29 19 7 10 46 62 87 116 113 143 111
124 20 217 -82 82 -123 111 -141 100z"/>
<path d="M2184 4803 c-151 -209 -231 -327 -239 -354 -8 -23 31 -89 162 -279
178 -257 253 -374 249 -387 -3 -7 -12 -66 -21 -130 -20 -153 -37 -253 -43
-253 -2 0 -58 41 -125 90 -66 50 -126 94 -134 98 -7 4 -22 54 -33 112 -12 58
-27 137 -35 175 -8 39 -24 124 -36 190 -12 66 -30 158 -39 204 l-17 84 -134
24 c-292 50 -383 64 -413 61 -30 -3 -33 -8 -77 -118 -106 -268 -119 -303 -119
-333 0 -24 -3 -28 -12 -19 -9 9 -7 27 10 81 20 62 21 101 3 101 -3 0 -62 12
-131 26 -158 32 -152 38 -148 -141 l3 -130 50 -7 c28 -4 95 -12 150 -18 55 -6
110 -14 123 -17 18 -4 22 -1 22 16 0 12 -7 24 -15 27 -8 4 -15 10 -15 16 0 5
13 0 29 -11 16 -12 37 -21 47 -21 23 0 159 103 181 137 10 15 21 54 24 88 l6
60 18 -42 c20 -48 46 -56 90 -27 27 17 31 14 15 -14 -63 -114 -72 -178 -41
-283 10 -35 28 -102 41 -149 47 -179 73 -265 83 -278 8 -10 23 -12 49 -8 23 4
38 2 38 -4 0 -5 -4 -10 -10 -10 -5 0 -10 -9 -10 -19 0 -18 96 -111 220 -213
25 -20 42 -39 39 -43 -4 -3 -62 40 -130 96 -148 121 -161 129 -189 104 -11
-10 -20 -15 -20 -12 0 4 -12 51 -26 104 -14 54 -32 123 -39 153 -22 94 -73
284 -84 313 -6 15 -17 27 -25 27 -19 0 -68 -80 -100 -165 -15 -38 -31 -80 -36
-93 -6 -13 -10 -65 -10 -117 0 -80 -3 -96 -18 -104 -10 -5 -68 -17 -130 -27
-102 -15 -112 -19 -111 -38 0 -23 68 -76 180 -144 100 -60 166 -83 267 -95
l94 -12 60 -65 60 -65 -124 -3 c-144 -3 -153 -2 -193 36 -75 71 -169 112 -340
147 -142 29 -175 31 -175 9 0 -8 32 -60 71 -115 81 -113 82 -92 -16 -200 -38
-41 -69 -88 -84 -125 -13 -32 -30 -72 -38 -89 -8 -16 -17 -56 -20 -87 -5 -49
-3 -58 10 -58 16 0 78 35 287 160 153 92 238 140 248 140 6 0 8 -9 5 -20 -8
-30 22 -37 227 -55 102 -9 202 -19 223 -22 55 -8 46 -26 -10 -19 -88 11 -277
25 -358 27 l-80 2 -5 -27 -5 -28 -23 31 c-13 17 -32 31 -43 31 -12 0 -97 -44
-191 -97 -93 -54 -195 -112 -226 -130 -70 -39 -83 -55 -118 -146 -34 -89 -40
-97 -49 -59 -10 48 -29 58 -71 39 -55 -27 -59 -20 -16 27 23 25 44 56 48 70 9
37 -17 221 -34 238 -5 5 -37 11 -73 14 -55 5 -66 4 -81 -12 -26 -30 -188 -403
-188 -434 0 -14 41 -47 200 -161 14 -9 70 -48 125 -86 55 -37 104 -74 108 -80
9 -15 54 -17 59 -4 2 5 46 38 98 73 52 35 158 107 235 160 258 175 279 189
295 183 8 -4 71 -14 140 -22 69 -9 127 -18 129 -20 3 -2 -12 -21 -33 -42 -34
-35 -44 -39 -104 -45 -149 -15 -237 -54 -429 -191 -42 -30 -57 -50 -48 -65 3
-4 57 -16 121 -25 65 -10 122 -24 130 -32 10 -10 14 -40 14 -104 0 -81 4 -99
40 -192 49 -122 83 -177 110 -177 11 0 20 2 20 4 0 3 14 58 31 123 16 65 50
196 75 292 24 96 47 177 49 179 3 3 7 -3 11 -12 3 -9 15 -16 26 -16 16 0 178
122 291 218 9 8 17 11 17 5 0 -5 -39 -43 -87 -84 -186 -158 -201 -176 -170
-208 10 -11 5 -12 -29 -6 -28 4 -44 2 -51 -7 -10 -13 -38 -107 -83 -278 -13
-47 -29 -105 -37 -130 -7 -25 -16 -72 -19 -105 -5 -53 -2 -69 30 -144 36 -82
36 -83 12 -67 -45 29 -71 21 -91 -26 l-18 -43 -6 60 c-8 77 -19 94 -91 150
-33 25 -60 48 -60 50 0 3 23 -9 51 -26 51 -32 119 -95 119 -111 0 -13 30 -9
35 5 3 6 -10 46 -28 87 -54 124 -51 120 -110 120 -64 0 -93 -17 -84 -50 4 -17
3 -20 -6 -11 -14 14 -54 15 -62 1 -3 -5 -15 -15 -26 -21 -20 -10 -20 -10 -3
16 9 14 14 29 10 32 -6 6 -274 -22 -323 -34 -22 -5 -23 -9 -23 -132 0 -175 -7
-168 154 -137 71 14 134 30 140 36 6 6 2 35 -14 85 l-24 76 27 27 c15 14 27
21 27 14 0 -7 -7 -15 -15 -18 -21 -8 -19 -56 4 -112 11 -26 45 -112 76 -192
81 -205 65 -189 177 -173 51 7 178 28 282 46 l189 33 19 94 c34 177 57 295 78
410 12 63 28 145 37 182 l16 68 141 104 c77 58 141 104 143 103 1 -2 11 -68
23 -147 11 -80 23 -152 25 -161 5 -15 -35 -79 -276 -434 -63 -93 -120 -183
-127 -198 -14 -33 0 -67 70 -162 24 -33 70 -98 103 -145 99 -145 128 -180 148
-180 38 0 415 169 437 195 15 17 8 131 -8 147 -14 14 -192 39 -230 33 -20 -4
-52 -23 -78 -47 -47 -44 -54 -39 -27 17 19 40 12 53 -39 71 l-31 10 76 32 c42
18 80 32 85 32 5 0 18 10 29 23 35 38 273 460 273 484 0 13 -12 31 -31 45
l-31 23 29 5 c22 4 28 11 27 30 -1 14 -4 89 -8 168 -4 82 -3 142 2 142 5 0 15
-66 22 -147 15 -170 21 -193 51 -193 27 0 28 1 -77 -177 -172 -291 -204 -348
-204 -360 0 -18 69 -17 126 3 104 35 193 87 259 150 78 73 64 75 191 -17 88
-64 114 -72 114 -36 0 49 -50 287 -69 325 -4 9 -18 38 -30 63 -12 25 -42 68
-67 97 l-45 51 3 119 3 120 122 -92 c70 -52 126 -102 132 -116 5 -14 19 -77
31 -140 31 -167 47 -249 75 -390 13 -69 26 -140 29 -159 3 -18 8 -37 13 -41 4
-4 53 -14 108 -24 55 -9 165 -27 245 -41 80 -14 163 -24 184 -23 l40 3 43 110
c82 206 123 320 123 340 0 12 3 16 10 9 6 -6 2 -34 -11 -77 -12 -37 -19 -73
-16 -80 5 -14 63 -31 187 -52 111 -20 110 -21 110 142 0 119 -1 124 -22 133
-25 10 -246 40 -296 40 -41 0 -42 -20 -2 -53 17 -14 30 -29 30 -32 0 -3 -20
10 -44 29 -50 42 -66 44 -109 14 l-32 -22 24 27 c31 35 22 54 -32 62 -81 12
-88 8 -130 -79 -68 -141 -61 -171 21 -88 26 26 63 56 82 66 28 15 23 8 -27
-40 l-63 -59 0 -63 c0 -71 -14 -81 -30 -22 -9 33 -15 40 -36 40 -13 0 -36 -7
-49 -16 -14 -9 -25 -14 -25 -12 0 3 16 41 35 85 37 85 42 125 24 183 -6 19
-19 67 -28 105 -65 251 -94 351 -103 363 -8 9 -23 11 -50 7 -25 -4 -38 -3 -38
4 0 6 5 11 11 11 6 0 9 10 7 22 -2 14 -51 64 -132 134 -72 61 -132 117 -134
125 -4 11 -1 10 14 -2 167 -141 268 -219 284 -219 10 0 23 7 28 16 6 12 11 13
16 5 6 -9 74 -266 107 -406 29 -123 52 -185 69 -185 22 0 61 58 95 143 43 109
47 127 54 232 l6 100 40 12 c22 6 79 16 128 23 127 18 120 37 -58 152 -108 70
-207 110 -305 121 l-85 10 -67 65 c-37 36 -66 67 -65 68 3 3 172 31 274 45
l82 11 58 -37 c32 -20 123 -81 203 -136 80 -55 190 -130 245 -166 55 -37 102
-70 103 -75 9 -21 50 -1 169 82 70 49 149 104 176 122 151 105 161 118 133
181 -8 18 -47 106 -86 197 -40 91 -80 173 -89 184 -14 15 -25 17 -76 12 -76
-7 -91 -24 -101 -114 -17 -140 -14 -156 36 -208 45 -46 45 -46 15 -39 -16 5
-43 9 -59 9 -25 1 -31 -4 -38 -32 -10 -37 -23 -35 -32 4 -4 14 -20 54 -37 89
-29 63 -32 65 -137 124 -59 34 -125 72 -147 86 -91 56 -220 125 -236 125 -6 0
-24 -14 -40 -31 l-29 -31 0 26 c0 25 -2 26 -62 26 -35 0 -135 -7 -223 -15
-185 -17 -215 -18 -215 -7 0 8 71 16 365 43 134 12 135 12 135 44 0 14 2 25 4
25 3 0 62 -34 367 -214 81 -47 154 -86 163 -86 29 0 20 83 -18 173 -9 20 -14
37 -11 37 3 0 14 -20 25 -45 30 -69 12 -77 280 124 175 132 190 145 190 158 0
13 -164 173 -177 173 -6 0 -47 -30 -90 -67 -43 -38 -94 -81 -113 -98 -98 -85
-150 -140 -145 -153 3 -8 8 -26 10 -40 4 -20 -1 -15 -19 18 -13 25 -52 72 -85
105 -34 33 -61 63 -61 67 0 9 55 88 112 161 45 58 42 82 -11 73 -20 -4 -65
-11 -101 -17 -87 -15 -195 -46 -250 -72 -49 -23 -137 -84 -159 -111 -12 -15
-30 -17 -113 -15 -54 2 -102 5 -108 9 -6 3 4 19 23 37 28 27 43 31 123 41 113
13 189 46 336 145 100 67 133 102 105 112 -7 3 -58 11 -115 20 -145 21 -142
18 -142 123 0 68 -6 102 -26 157 -14 39 -32 88 -40 111 -17 46 -69 114 -89
114 -7 0 -16 -10 -19 -22 -16 -57 -61 -228 -103 -393 -25 -99 -48 -182 -50
-185 -3 -3 -9 3 -14 13 -20 35 -36 26 -213 -120 -88 -74 -116 -92 -116 -79 0
2 39 37 87 77 143 121 183 161 183 180 0 11 -4 19 -10 19 -5 0 -10 4 -10 9 0
5 17 7 38 4 25 -3 42 0 49 8 6 8 34 102 62 209 28 107 58 218 66 246 22 75 19
107 -20 197 -19 44 -35 82 -35 84 0 2 10 -3 22 -11 12 -9 34 -16 49 -16 21 0
29 8 44 43 l19 42 5 -67 c5 -52 11 -72 31 -93 41 -43 156 -125 176 -125 25 0
114 77 114 98 0 18 -51 158 -122 337 -53 131 -43 127 -236 95 -292 -49 -381
-65 -387 -71 -3 -4 -8 -19 -11 -35 -7 -45 -53 -291 -69 -369 -8 -38 -26 -134
-41 -212 -15 -79 -30 -143 -34 -143 -4 0 -62 -40 -129 -90 l-121 -90 0 159 0
158 51 64 c29 35 62 88 75 117 28 62 70 230 80 320 6 55 5 62 -11 62 -10 0
-58 -30 -108 -66 -49 -36 -95 -68 -101 -70 -7 -3 -41 23 -76 56 -36 33 -86 72
-112 86 -58 29 -62 38 -10 20 20 -7 45 -10 55 -7 9 4 42 35 73 71 31 36 75 85
98 110 79 87 126 149 126 166 0 18 -152 174 -169 174 -12 0 -65 -65 -177 -215
-170 -227 -173 -234 -108 -255 18 -6 36 -16 40 -21 3 -6 -11 -3 -33 6 -79 35
-173 48 -173 25 0 -10 55 -116 70 -135 4 -5 17 -26 28 -45 11 -19 62 -108 115
-197 93 -160 94 -162 69 -165 -33 -4 -35 -16 -57 -237 -8 -91 -18 -167 -20
-170 -14 -13 -15 18 -6 125 6 66 11 155 13 199 l3 80 -27 3 -28 3 30 26 c17
13 30 34 30 46 0 12 -35 82 -77 155 -43 74 -90 155 -104 180 -92 163 -85 157
-254 223 l-30 11 32 12 c53 18 59 30 40 71 -27 56 -20 60 30 16 25 -23 57 -44
69 -47 26 -7 182 12 218 26 40 15 52 145 17 167 -40 25 -387 175 -416 180 -29
5 -34 -1 -101 -94z m357 -2213 l4 -295 -86 -3 -87 -3 -6 118 c-3 65 -7 201 -8
303 l-3 185 80 5 c47 3 85 1 91 -5 8 -7 13 -100 15 -305z m243 273 c3 -21 6
-57 6 -79 0 -45 10 -54 59 -54 39 0 59 26 73 101 l13 64 80 0 80 0 -2 -50 c-6
-124 -51 -215 -130 -265 -39 -25 -57 -30 -109 -30 l-63 0 6 -125 6 -125 -55 0
c-31 0 -69 -3 -86 -6 l-30 -6 -6 123 c-3 68 -8 204 -11 301 -6 202 -15 185 96
187 l66 1 7 -37z"/>
<path d="M3032 4461 c-78 -88 -142 -167 -142 -176 0 -26 90 -115 116 -115 12
0 24 4 26 8 2 4 26 26 54 47 137 107 254 211 254 226 0 31 -122 169 -150 169
-9 0 -80 -72 -158 -159z"/>
<path d="M2605 4518 c-16 -5 -68 -11 -115 -12 -49 -2 -86 -8 -88 -14 -4 -13
49 -41 141 -73 l69 -24 39 44 c48 53 53 91 12 90 -16 0 -41 -5 -58 -11z"/>
<path d="M912 4457 c-9 -11 -32 -153 -32 -197 1 -36 21 -43 252 -84 34 -6 39
1 82 108 36 88 44 130 27 140 -10 6 -271 46 -300 46 -10 0 -23 -6 -29 -13z"/>
<path d="M4185 4449 c-66 -11 -126 -21 -132 -24 -17 -6 -16 -33 1 -66 7 -14
16 -37 19 -50 4 -14 18 -51 33 -83 26 -56 26 -57 62 -50 122 21 228 46 240 57
10 11 10 32 2 106 -6 51 -15 102 -21 112 -12 24 -41 23 -204 -2z"/>
<path d="M4385 4194 c-157 -31 -228 -50 -232 -60 -4 -11 15 -91 32 -136 3 -7
-15 -35 -41 -61 -48 -51 -53 -74 -13 -70 90 9 287 34 302 39 15 5 17 20 17
124 0 65 -4 130 -10 144 -9 26 -15 28 -55 20z"/>
<path d="M1456 4028 c-14 -18 -59 -55 -100 -83 -109 -72 -103 -105 16 -105 39
0 50 4 60 23 23 41 78 170 78 184 0 24 -29 14 -54 -19z"/>
<path d="M3790 4044 c0 -9 19 -58 41 -110 l42 -94 54 0 c59 0 93 13 93 35 0 7
-36 38 -80 69 -44 31 -89 70 -102 86 -24 32 -48 40 -48 14z"/>
<path d="M847 3873 c-4 -3 -7 -60 -7 -125 0 -86 3 -120 13 -123 20 -8 438 -34
452 -29 19 8 85 154 85 189 0 23 -25 29 -261 64 -221 32 -271 36 -282 24z"/>
<path d="M4205 3855 c-88 -14 -191 -29 -229 -36 l-68 -11 6 -39 c4 -22 21 -70
39 -107 l32 -67 75 3 c188 6 385 24 392 35 9 14 11 209 2 231 -8 21 -52 20
-249 -9z"/>
<path d="M844 3576 c-3 -9 -3 -54 1 -100 5 -68 11 -88 29 -105 20 -19 27 -20
111 -11 50 5 135 14 190 20 145 15 135 7 135 105 l0 83 -32 5 c-18 4 -122 9
-230 13 -179 6 -198 5 -204 -10z"/>
<path d="M4115 3580 c-66 -4 -121 -8 -122 -9 -8 -7 -12 -132 -5 -152 10 -24
17 -27 79 -34 37 -3 82 -8 98 -11 17 -2 77 -8 135 -14 104 -9 105 -9 126 14
16 18 22 42 27 111 3 49 4 92 1 97 -6 9 -156 8 -339 -2z"/>
<path d="M4493 3253 c-103 -120 -203 -251 -203 -265 0 -22 93 -108 118 -108
12 0 30 8 40 18 10 9 79 72 155 140 82 74 137 131 137 142 0 10 -29 43 -64 74
-51 45 -70 56 -99 56 -30 0 -42 -8 -84 -57z"/>
<path d="M690 3233 c-42 -28 -120 -106 -120 -122 0 -16 20 -36 192 -188 69
-62 133 -113 142 -113 22 0 116 88 116 108 0 14 -57 97 -92 133 -7 8 -40 48
-73 89 -96 120 -110 128 -165 93z"/>
<path d="M441 2999 c-44 -44 -81 -83 -81 -88 0 -12 48 -53 180 -153 147 -112
243 -178 258 -178 11 0 59 96 79 160 14 44 13 45 -14 69 -65 56 -110 95 -186
163 -85 78 -125 108 -143 108 -6 0 -48 -36 -93 -81z"/>
<path d="M4845 2859 c-177 -141 -176 -139 -76 -139 l69 0 36 -70 c21 -38 41
-70 46 -70 11 0 84 43 168 99 86 58 85 70 -20 177 -52 54 -89 84 -102 83 -12
0 -66 -36 -121 -80z"/>
<path d="M248 2793 c-81 -82 -92 -99 -89 -130 2 -17 208 -145 228 -141 9 2 33
31 53 66 l35 62 68 0 c51 0 67 3 67 14 0 18 -247 215 -270 216 -3 0 -44 -39
-92 -87z"/>
<path d="M5054 2627 c-74 -49 -110 -79 -112 -93 -2 -12 17 -66 41 -120 35 -81
47 -99 65 -99 12 0 75 40 142 88 145 106 146 109 63 209 -31 38 -64 73 -73 78
-13 7 -42 -8 -126 -63z"/>
<path d="M4572 2648 c-49 -40 -53 -68 -20 -155 27 -73 46 -103 64 -103 12 0
13 10 9 48 -4 28 0 77 9 122 9 41 16 85 16 98 0 32 -30 28 -78 -10z"/>
<path d="M94 2588 c-60 -62 -94 -112 -94 -135 0 -23 40 -60 164 -151 48 -35
94 -62 103 -60 18 3 91 158 100 211 5 32 2 35 -102 105 -58 40 -112 72 -118
72 -7 0 -31 -19 -53 -42z"/>
<path d="M660 2600 c0 -5 7 -51 16 -102 9 -53 13 -110 9 -135 -5 -35 -3 -43 9
-43 21 0 38 31 72 129 l29 83 -44 39 c-41 36 -91 52 -91 29z"/>
<path d="M872 1860 c-12 -14 -21 -42 -26 -82 -10 -104 -8 -135 12 -140 13 -4
438 16 450 21 1 1 2 39 2 85 0 72 -3 85 -17 90 -10 3 -85 12 -168 21 -82 8
-169 18 -192 21 -33 4 -45 1 -61 -16z"/>
<path d="M4162 1855 c-68 -7 -134 -16 -147 -19 -29 -7 -38 -41 -29 -117 6 -56
8 -59 38 -64 74 -11 402 -22 419 -13 17 9 18 18 12 96 -10 121 -18 132 -103
131 -37 -1 -122 -7 -190 -14z"/>
<path d="M1065 1624 c-110 -8 -206 -16 -213 -19 -9 -3 -12 -35 -10 -127 l3
-123 31 -3 c30 -3 330 36 444 58 69 13 77 21 62 62 -47 138 -56 154 -93 161
-13 3 -114 -1 -224 -9z"/>
<path d="M3993 1630 c-14 -6 -31 -34 -52 -89 -37 -96 -39 -117 -8 -124 58 -15
455 -68 486 -65 l36 3 3 114 c2 71 -1 118 -8 126 -11 14 -69 20 -265 30 -60 4
-123 8 -140 10 -16 3 -40 0 -52 -5z"/>
<path d="M2936 1086 c-25 -29 -46 -59 -46 -65 0 -14 278 -328 296 -335 22 -8
154 140 154 172 0 18 -38 53 -194 178 -71 57 -137 104 -147 104 -10 0 -38 -24
-63 -54z"/>
<path d="M1020 1034 c-69 -14 -129 -29 -134 -35 -15 -13 11 -210 29 -229 14
-13 32 -12 166 7 83 13 154 25 160 28 17 11 10 49 -28 145 -34 86 -48 111 -63
109 -3 0 -61 -12 -130 -25z"/>
<path d="M4131 1051 c-10 -7 -91 -208 -91 -227 0 -17 18 -22 160 -44 160 -25
177 -25 190 -1 16 30 31 203 19 217 -16 20 -257 67 -278 55z"/>
<path d="M2830 1003 c-8 -3 -38 -16 -66 -29 -28 -13 -55 -24 -59 -24 -5 0 -16
-7 -26 -16 -17 -15 -17 -19 -2 -47 19 -37 273 -377 296 -395 11 -10 21 -11 34
-3 35 20 153 148 153 167 0 26 -286 355 -307 353 -4 0 -15 -3 -23 -6z"/>
<path d="M2506 876 c-48 -19 -93 -39 -98 -44 -19 -19 2 -32 40 -26 20 3 66 0
102 -6 147 -25 140 -26 140 3 0 26 -66 107 -86 107 -5 -1 -49 -16 -98 -34z"/>
<path d="M2728 660 l-3 -72 -60 -32 c-33 -17 -61 -38 -63 -47 -1 -8 12 -40 31
-70 18 -30 46 -75 63 -102 29 -48 61 -66 87 -50 32 18 177 161 177 174 -1 21
-194 263 -213 267 -13 3 -17 -9 -19 -68z"/>
<path d="M2510 483 c-17 -6 -76 -32 -145 -64 -28 -13 -45 -27 -44 -37 0 -10
42 -71 92 -137 69 -90 98 -121 117 -123 31 -3 180 110 180 136 0 16 -22 52
-118 195 -25 36 -45 43 -82 30z"/>
</g>
</svg>
