<?xml version="1.0" encoding="utf-8"?>
<!-- Generator: Adobe Illustrator 24.2.3, SVG Export Plug-In . SVG Version: 6.00 Build 0)  -->
<svg version="1.1" id="Layer_1" xmlns="http://www.w3.org/2000/svg" xmlns:xlink="http://www.w3.org/1999/xlink" x="0px" y="0px"
	 viewBox="0 0 791 370.1" style="enable-background:new 0 0 791 370.1;" xml:space="preserve">
<style type="text/css">
	.st0{fill:#FFFFFF;stroke:#000000;stroke-miterlimit:10;}
	.st1{fill-rule:evenodd;clip-rule:evenodd;fill:#DDDFE2;}
	.st2{fill:#FFFFFF;}
	.st3{fill-rule:evenodd;clip-rule:evenodd;fill:#86B264;}
	.st4{fill-rule:evenodd;clip-rule:evenodd;fill:#709D52;}
	.st5{fill-rule:evenodd;clip-rule:evenodd;fill:#A0CF7E;}
	.st6{fill-rule:evenodd;clip-rule:evenodd;fill:#BBBFC6;}
	.st7{fill-rule:evenodd;clip-rule:evenodd;fill:#EEEFF1;}
	.st8{fill-rule:evenodd;clip-rule:evenodd;fill:#F6F6F7;}
	.st9{fill-rule:evenodd;clip-rule:evenodd;fill:#FFFFFF;}
	.st10{fill-rule:evenodd;clip-rule:evenodd;fill:#ABAFB8;}
	.st11{fill-rule:evenodd;clip-rule:evenodd;fill:#CCCFD4;}
	.st12{fill-rule:evenodd;clip-rule:evenodd;fill:#F9FAFA;}
	.st13{fill-rule:evenodd;clip-rule:evenodd;fill:#89909B;}
	.st14{opacity:0.1;fill-rule:evenodd;clip-rule:evenodd;fill:#1D2432;enable-background:new    ;}
	.st15{fill-rule:evenodd;clip-rule:evenodd;fill:#787F8D;}
	.st16{fill-rule:evenodd;clip-rule:evenodd;fill:#68707F;}
	.st17{fill-rule:evenodd;clip-rule:evenodd;fill:#99D1B9;}
	.st18{fill-rule:evenodd;clip-rule:evenodd;fill:#47AD82;}
	.st19{fill-rule:evenodd;clip-rule:evenodd;fill:#2B8B62;}
	.st20{fill-rule:evenodd;clip-rule:evenodd;fill:#3E90AA;}
	.st21{fill-rule:evenodd;clip-rule:evenodd;fill:#317186;}
	.st22{fill-rule:evenodd;clip-rule:evenodd;fill:#8DC1D2;}
	.st23{fill-rule:evenodd;clip-rule:evenodd;fill:#67ACC3;}
	.st24{fill-rule:evenodd;clip-rule:evenodd;fill:#347990;}
	.st25{fill-rule:evenodd;clip-rule:evenodd;fill:#576071;}
	.st26{fill-rule:evenodd;clip-rule:evenodd;fill:#96637C;}
	.st27{fill:#734D61;}
	.st28{fill-rule:evenodd;clip-rule:evenodd;fill:#6C4D7B;}
	.st29{fill-rule:evenodd;clip-rule:evenodd;fill:#88619A;}
	.st30{fill-rule:evenodd;clip-rule:evenodd;fill:#7A578A;}
	.st31{fill-rule:evenodd;clip-rule:evenodd;fill:#F7F7F7;}
	.st32{fill-rule:evenodd;clip-rule:evenodd;fill:#DFBDA5;}
	.st33{fill-rule:evenodd;clip-rule:evenodd;fill:#C3987B;}
	.st34{fill-rule:evenodd;clip-rule:evenodd;fill:#404857;}
	.st35{fill-rule:evenodd;clip-rule:evenodd;fill:#AA8094;}
	.st36{fill-rule:evenodd;clip-rule:evenodd;fill:#E8CAB6;}
	.st37{fill-rule:evenodd;clip-rule:evenodd;fill:#8B6651;}
	.st38{fill-rule:evenodd;clip-rule:evenodd;fill:#734D61;}
	.st39{fill-rule:evenodd;clip-rule:evenodd;fill:#543042;}
	.st40{fill:#232A38;}
	.st41{fill-rule:evenodd;clip-rule:evenodd;fill:#72CBCC;}
	.st42{fill-rule:evenodd;clip-rule:evenodd;fill:#CC9C34;}
	.st43{fill-rule:evenodd;clip-rule:evenodd;fill:#886822;}
	.st44{fill-rule:evenodd;clip-rule:evenodd;fill:#F4D75C;}
	.st45{fill-rule:evenodd;clip-rule:evenodd;fill:#FFF7AE;}
	.st46{fill-rule:evenodd;clip-rule:evenodd;fill:#51596A;}
	.st47{fill-rule:evenodd;clip-rule:evenodd;fill:#AA822B;}
	.st48{fill-rule:evenodd;clip-rule:evenodd;fill:#4FA9AA;}
	.st49{fill-rule:evenodd;clip-rule:evenodd;fill:#359496;}
	.st50{fill-rule:evenodd;clip-rule:evenodd;fill:#B3889D;}
	.st51{fill-rule:evenodd;clip-rule:evenodd;fill:#D1A1B8;}
	.st52{fill:#94D5D5;}
	.st53{fill-rule:evenodd;clip-rule:evenodd;fill:#9F80AE;}
	.st54{fill-rule:evenodd;clip-rule:evenodd;fill:#F3EFF5;}
	.st55{fill-rule:evenodd;clip-rule:evenodd;fill:#C3B0CC;}
	.st56{fill-rule:evenodd;clip-rule:evenodd;fill:#C29431;}
	.st57{fill-rule:evenodd;clip-rule:evenodd;fill:#71561C;}
	.st58{fill-rule:evenodd;clip-rule:evenodd;fill:#B58B00;}
	.st59{fill-rule:evenodd;clip-rule:evenodd;fill:#E5C828;}
	.st60{fill:#E5C828;}
	.st61{fill-rule:evenodd;clip-rule:evenodd;fill:#9F7928;}
	.st62{fill-rule:evenodd;clip-rule:evenodd;fill:#3D4554;}
	.st63{fill-rule:evenodd;clip-rule:evenodd;fill:#4B5464;}
	.st64{fill-rule:evenodd;clip-rule:evenodd;fill:#CCAD14;}
	.st65{fill-rule:evenodd;clip-rule:evenodd;fill:#232A38;}
	.st66{fill-rule:evenodd;clip-rule:evenodd;fill:#5A753D;}
	.st67{fill-rule:evenodd;clip-rule:evenodd;fill:#648E43;}
	.st68{fill-rule:evenodd;clip-rule:evenodd;fill:#44622D;}
	.st69{fill-rule:evenodd;clip-rule:evenodd;fill:#D4D4D3;}
	.st70{fill-rule:evenodd;clip-rule:evenodd;fill:#709453;}
	.st71{fill-rule:evenodd;clip-rule:evenodd;fill:#33A474;}
	.st72{fill-rule:evenodd;clip-rule:evenodd;fill:#446125;}
</style>
<rect x="0" class="st0" width="791" height="370.1"/>
<polygon class="st1" points="41.6,22.5 295.9,51.6 291.1,235.3 34.2,247.8 "/>
<ellipse transform="matrix(0.1602 -0.9871 0.9871 0.1602 80.1775 331.5774)" class="st2" cx="234.9" cy="118.7" rx="22.9" ry="22.9"/>
<polygon class="st3" points="284.3,124.1 274.2,120.2 257.4,117.5 231.4,130 237.7,138.4 234.7,145.5 233.1,153 217.7,154 
	214,181.2 205,177.6 194.5,169.4 183.9,175 172.9,173.3 163.8,191.5 140.9,203.3 96.4,195.2 81.6,171.1 81.6,163.4 90.2,158.7 
	85.3,143.2 69.6,140.6 64.8,136.3 59.5,119.8 42.6,116.7 37.8,245.4 280.1,230.9 "/>
<polygon class="st4" points="231.4,130 254.3,143.5 284.3,124.1 274.7,155.6 254.3,143.5 234.7,145.5 "/>
<polygon class="st4" points="274.7,155.6 241.4,165.3 232.3,191.3 248.1,221.3 282.6,219.4 289,186.6 "/>
<polygon class="st4" points="205,177.6 178.3,190.5 161,201.6 156.8,218.1 172.4,226.7 207.8,225.3 209.5,199.9 "/>
<polygon class="st4" points="90.2,158.7 49.8,155.6 81.6,171.1 "/>
<polygon class="st4" points="44.7,174.2 70.7,184.6 70,200.8 61,204.7 39,213.7 "/>
<polygon class="st5" points="59.5,119.8 43.7,129.3 41.6,113.7 "/>
<polygon class="st5" points="64.8,136.3 50.4,142.2 85.3,143.2 "/>
<polygon class="st5" points="81.6,171.1 48.9,175.9 44.2,166.1 49.8,155.6 "/>
<polygon class="st5" points="194.5,169.4 178.3,190.5 172.9,173.3 "/>
<polygon class="st5" points="217.7,154 241.4,165.3 254.3,143.5 234.7,145.5 "/>
<polygon class="st5" points="231.4,130 257.4,113.5 274.2,120.2 "/>
<polygon class="st6" points="753.2,0 775.2,7.2 791,321 762.3,324.8 743.8,200.5 "/>
<polygon class="st7" points="308.8,34.5 753.2,0 762.3,324.8 594.8,314 470.6,293.7 388.3,301.1 308.8,295.5 303,137.2 "/>
<polygon class="st6" points="495.8,59.7 493.9,42.3 507.1,41.2 506,59.5 "/>
<polygon class="st7" points="497.5,49 500.4,45.5 503.5,49 500.2,51.9 "/>
<polygon class="st6" points="649.2,49.7 647.3,32.3 660.5,31.1 659.3,49.5 "/>
<polygon class="st7" points="650.9,39 653.8,35.5 656.8,39 653.6,41.9 "/>
<polygon class="st8" points="484.3,65.3 676.2,54.1 683,194.6 487.8,192.8 "/>
<polygon class="st7" points="539.8,97.8 574.1,151.7 605.5,182.3 574.1,204.2 515.1,128.2 519,106.5 "/>
<polygon class="st1" points="490.4,64.9 517.6,63.9 539.8,97.8 515.1,128.2 489.6,96.6 "/>
<polygon class="st9" points="539.8,97.8 568.8,60.7 517.6,63.9 "/>
<polygon class="st9" points="515.1,128.2 489.6,160.4 489.6,96.6 "/>
<polygon class="st1" points="568.8,137.1 566.4,139.6 559.3,156.6 543,164.1 539.8,167.4 520.1,190.4 558.8,194.6 609.1,195.2 
	623.9,145 580.1,132.6 "/>
<polygon class="st9" points="543,164.1 574.1,204.2 602.6,185.8 574.1,151.7 566.4,139.6 "/>
<polygon class="st1" points="643.5,160.8 660.3,145 677.6,131.5 669.4,189.1 663.5,195.8 627,191.1 635.8,175 "/>
<path class="st10" d="M682.8,44.5L476,56.6l4.5,146.4l209.4,2.4L682.8,44.5z M496.8,186.3l-3.2-115.5l173.9-10.1l6.1,127.3
	L496.8,186.3z"/>
<polygon class="st8" points="333,86.7 373.4,85.4 373.8,141.2 333.5,142.1 "/>
<polygon class="st1" points="333.9,116 354.9,110.3 370.2,110.3 373.1,140.6 333.9,141.6 "/>
<path class="st11" d="M378.2,81.2l-51.4,1.5l1.2,64l51.4-0.8L378.2,81.2z M335.6,139l-0.4-49.4l36-1.1l0.4,49.8L335.6,139z"/>
<polygon class="st1" points="340.9,182.3 345.8,173.2 351.5,182.7 349.5,182.7 345.7,176.8 342.5,182.7 "/>
<polygon class="st11" points="327.8,180 364.9,181.1 366.4,226.7 326.8,225.5 "/>
<polygon class="st8" points="333.9,186.6 359.5,187 360.1,220.6 333,219.7 "/>
<polygon class="st11" points="347.6,201.4 349.2,214.1 346.3,211.6 343.6,214 345.3,201.1 346.5,201 "/>
<polygon class="st6" points="340.2,196.8 344,192.1 349.7,192.1 353.1,197.4 349.4,202.7 343.5,202.6 "/>
<polygon class="st8" points="344.5,197.1 346.7,194.5 349.1,197.3 346.3,200.1 "/>
<polygon class="st12" points="275.5,215.8 36.5,223.1 36.5,241.3 300,228.5 297.3,217.6 "/>
<polygon class="st7" points="273.5,60.2 275.5,215.8 293.1,221.3 303,167.8 295.4,44.5 "/>
<polygon class="st13" points="289,53.6 273.5,60.2 49.5,42.4 49.5,29.8 "/>
<path class="st7" d="M33,7.1l-21.2,5.1L0,316.7l23.5,1.4c0,0,14.3-147.8,14.3-149.5C37.8,166.8,33,7.1,33,7.1z"/>
<path class="st11" d="M33,7.1l-9.5,310.9l285.3-22.6v-261L33,7.1z M46.5,233.8l8.2-200.2L289,53.6l4.1,167.7L46.5,233.8z"/>
<polygon class="st14" points="20.9,350.1 48.4,344.5 76.1,338.3 80.7,331.8 83.8,338.3 157.3,328.2 196.6,331.3 230.6,327.9 
	239,320.5 246.1,328.1 346.7,338.9 261.5,362.4 96,370.1 "/>
<polygon class="st14" points="362.5,322 375.8,313.4 379.9,323.2 518.2,330.5 535.2,322.1 545.4,330.8 537,336.9 597.5,351.7 
	664.8,340.2 685.8,343.5 696,334.3 697.5,345.3 730.7,349.6 783.8,332.8 762.3,324.8 757.7,162.2 716.6,158.7 694.3,182.7 
	689.9,212.9 663.5,278.1 638.8,259.9 556.3,275.1 388.1,282.8 "/>
<polygon class="st14" points="403.7,349.5 386.2,353.2 445.7,367 520.8,351.7 482.9,344.5 461.1,334.1 439.7,327.4 418.2,343.5 "/>
<polygon class="st15" points="379.9,323.2 394.6,321.1 412.2,295.5 383.5,295.5 "/>
<polygon class="st16" points="594.3,323.8 578.2,322.2 577,313.9 571.7,293 593.1,297.7 "/>
<polygon class="st13" points="533.9,269.7 569.7,258.7 600.2,262.5 610.5,321 594.3,323.8 589.4,303.8 560.8,306.9 557.7,327 
	537,332.3 527.8,286.1 "/>
<polygon class="st10" points="366.4,255.7 362.5,322 379.9,323.2 388.3,301.1 511.9,308.8 518.2,330.5 537,332.3 533.9,269.7 
	460.3,250.4 "/>
<polygon class="st17" points="349.9,244 535.2,263.2 605.7,245 437.5,232.1 "/>
<polygon class="st18" points="349.9,244 351.3,260.9 533.9,269.7 541,262.2 536.3,257.3 "/>
<polygon class="st19" points="533.9,269.7 606.7,262.2 605.7,245 536.3,257.3 "/>
<polygon class="st20" points="74.8,313.1 76.1,338.3 83.8,338.3 88.5,308.9 "/>
<polygon class="st20" points="181.7,311.1 186,339.8 190.5,339.8 196.9,307.1 "/>
<polygon class="st21" points="131.8,308.9 186,299.9 194.8,298.3 193,312.4 131.2,321.3 "/>
<polygon class="st22" points="70.7,184.6 129.5,178.6 139.2,188.8 74,190.5 "/>
<polygon class="st23" points="61,204.7 70.7,184.6 80.1,186.5 72.4,213.8 "/>
<polygon class="st24" points="71.4,205.4 61,204.7 74.8,313.1 131.2,321.3 131.8,308.9 84.8,296.5 "/>
<polygon class="st23" points="83.3,301.5 130.7,308.9 186,299.9 198.4,289.8 146.6,277.1 97.6,289.8 "/>
<polygon class="st20" points="80.1,186.5 112.1,184.6 144.1,184.6 156.8,293.7 101.8,299.9 83.3,301.5 71.4,205.4 "/>
<polygon class="st15" points="226,277.1 230.6,327.9 238.4,329 244.3,272.8 "/>
<polygon class="st25" points="238.4,329 246.1,328.1 257.4,269.7 240.3,272.8 "/>
<polygon class="st25" points="305.4,339.8 313.5,338.3 322,266.4 303,268.9 "/>
<polygon class="st15" points="291.1,273.8 294.5,338.3 305.4,339.8 308.8,266.6 "/>
<polygon class="st25" points="57.7,345.5 66.4,343.5 73.3,265.8 56.2,269.9 "/>
<polygon class="st15" points="42.6,266.6 48.4,344.5 57.7,345.5 59.5,270.8 "/>
<polygon class="st26" points="157.3,325.3 169,342.1 155.3,345.1 136.1,342.1 136.1,332.5 145.5,325.1 "/>
<rect x="136.1" y="342.1" class="st27" width="32.9" height="5.5"/>
<polygon class="st26" points="211.8,317.5 231.4,334.3 211,337.3 190.5,334.3 190.5,324.8 200,317.4 "/>
<rect x="190.5" y="334.3" class="st27" width="40.9" height="5.5"/>
<polygon class="st28" points="153.7,293.7 186,299.9 213.2,283.8 169.8,277.1 "/>
<polygon class="st29" points="186,299.9 190.5,324.8 211.8,317.5 219.6,278.1 203.9,282.1 "/>
<polygon class="st30" points="98.6,276 101.8,299.9 133.7,306.2 139.3,285.8 "/>
<polygon class="st29" points="137.1,291.1 167,287.3 157.3,325.3 136.1,332.5 133.7,306.2 "/>
<polygon class="st31" points="112.1,184.6 145.9,216.5 155.3,183 133,179.5 "/>
<polygon class="st32" points="154.5,98.6 162.5,90 171.6,88.3 184.7,160.6 160.9,166.6 132.6,168.6 118.8,119.4 116.1,96.3 
	135.7,93.9 "/>
<polygon class="st33" points="149.6,171.8 184.7,160.6 132.6,170.1 122,117.2 116.1,96.3 104.5,110.5 107.8,121.5 115.8,135 
	112.2,136 110.1,139.9 105.8,136.8 102.4,129.3 98.6,135.2 93.9,137.9 100.8,143.6 103.9,150.5 105.9,154.9 107,163.6 111.9,185.1 
	155.3,183 "/>
<polygon class="st34" points="175.4,109.3 178.8,84.2 165.9,86.3 "/>
<polygon class="st35" points="178.3,190.5 184.8,218.3 187.9,242.8 169.8,240.7 169,206.8 "/>
<polygon class="st26" points="184.8,218.3 195.6,223.1 196.9,242.1 177.4,243.6 172.9,235.2 "/>
<polygon class="st33" points="129.5,114.8 144.1,122.3 153.2,138.4 152.1,123.4 149.6,115.4 146.6,113.8 139.9,112.8 "/>
<polygon class="st33" points="159.4,108.7 157.1,114.4 156.8,120.3 159.7,127.5 170.9,109.3 165,104.6 "/>
<polygon class="st34" points="145.9,109.1 129,110.2 129.5,114.8 146.6,113.8 "/>
<polygon class="st34" points="157.1,105.6 165.6,102.7 172.9,106.1 170.9,109.3 165.1,106.5 159.4,108.7 "/>
<polygon class="st36" points="157.1,114.4 161.5,136.3 158,138.7 153.2,138.4 149.6,115.4 "/>
<polygon class="st32" points="110.1,139.9 111.9,144.1 107.4,150.9 103.9,150.5 93.9,137.9 102.4,129.3 "/>
<polygon class="st16" points="154.5,98.6 178.8,84.2 153,67.9 151,84.8 "/>
<polygon class="st15" points="154.5,98.6 153,67.9 85.9,93.2 100.3,97.6 116.1,96.3 "/>
<polygon class="st16" points="85.9,93.2 83.3,132.4 95,122.6 104.5,110.5 116.1,96.3 "/>
<polygon class="st34" points="104.5,110.5 115.8,135 110.1,139.9 102.4,129.3 93.9,137.9 83.3,132.4 "/>
<polygon class="st37" points="97.6,139.3 101.6,135.3 107.9,142.9 "/>
<polygon class="st37" points="103.9,150.5 111.9,144.1 107.1,164 "/>
<polygon class="st37" points="161.5,136.3 157.9,142.2 153.2,138.4 "/>
<polygon class="st26" points="112.1,184.6 143.9,205.3 125.6,219.9 103,233.8 95.4,216.3 90.2,196.6 "/>
<polygon class="st26" points="155.3,183 178.3,190.5 171.3,210.9 158.4,213.7 143.9,205.3 "/>
<polygon class="st38" points="101.8,229.4 109.3,255.8 117.1,262.4 150.2,265.8 150.4,232.9 143.9,205.3 "/>
<polygon class="st39" points="143.9,205.3 171.3,210.9 174.7,261.8 150.2,265.8 "/>
<path class="st40" d="M169,116.7c0,1.7-1.4,3.1-3.1,3.1c-1.7,0-3.1-1.4-3.1-3.1c0-1.7,1.4-3.1,3.1-3.1S169,115,169,116.7
	C169,116.7,169,116.7,169,116.7z"/>
<path class="st40" d="M144.1,122.3c0,1.7-1.4,3.1-3.1,3.1s-3.1-1.4-3.1-3.1c0-1.7,1.4-3.1,3.1-3.1
	C142.6,119.2,144.1,120.6,144.1,122.3C144.1,122.3,144.1,122.3,144.1,122.3z"/>
<polygon class="st37" points="123.7,169.7 184.7,160.6 155.3,173.5 155.3,183 "/>
<polygon class="st41" points="34.2,247.8 211.5,231.7 339.8,254.5 133.3,284.8 "/>
<polygon class="st14" points="261.7,249.8 276.8,253.3 228,264 177.4,263.3 157.1,246.9 216.9,242.8 "/>
<polygon class="st14" points="76.1,244 96.4,256.8 121.4,262.9 133.7,260.5 142.8,264 145.5,255.9 114.9,245.4 "/>
<polygon class="st14" points="177.1,268.9 174.7,271.8 154.5,273.8 148.1,268.3 159.3,264.3 "/>
<polygon class="st35" points="90.2,196.6 76.1,244 98.5,246.9 101.8,229.4 "/>
<polygon class="st26" points="101.8,229.4 123.7,239.6 122.9,246.9 112.8,254.8 76.1,244 "/>
<polygon class="st37" points="147.3,150.5 168.1,146.9 167.2,150.8 150.7,154.1 "/>
<polygon class="st32" points="123.7,239.6 137.1,244.7 128.2,254.8 112.8,254.8 "/>
<polygon class="st32" points="137.1,244.7 145.5,255.9 139.4,258.7 "/>
<polygon class="st33" points="137.1,244.7 142.8,264 121.4,262.9 112.8,254.8 "/>
<polygon class="st42" points="144.1,237.8 143.3,245.8 189.8,258.2 196.2,245.3 "/>
<polygon class="st43" points="189.8,258.2 261.7,249.8 262.3,240.7 209.2,241.4 190,249.8 "/>
<polygon class="st44" points="144.1,237.8 211.5,231.7 262.3,240.7 190,249.8 "/>
<polygon class="st45" points="157.7,238.7 211.1,233.8 246.1,240.2 189.1,246.4 "/>
<polygon class="st44" points="163.3,241 225.7,235.3 228,236.1 166.6,241.9 "/>
<polygon class="st44" points="176.6,243.9 238.2,237.6 240.6,238.3 178.5,245 "/>
<polygon class="st15" points="152.8,248.3 171.9,247.6 177.4,263.3 161.1,265.4 148.9,262.5 "/>
<polygon class="st46" points="148.9,262.5 148.1,268.3 177.1,268.9 177.4,263.3 "/>
<polygon class="st7" points="153.4,258.7 154.6,251.6 170.4,251 172.4,259.7 "/>
<polygon class="st33" points="195.6,223.1 187,226.8 182.7,234.3 192.4,238.3 200.8,235.6 "/>
<polygon class="st32" points="187,226.8 192.4,238.3 202.5,235.6 195.6,223.1 "/>
<polygon class="st42" points="190,249.8 205,177.6 227,181.2 196.9,252.6 "/>
<polygon class="st44" points="205,177.6 275.5,171.1 285.7,175.5 247.7,187 214,181.2 "/>
<polygon class="st47" points="214,181.2 285.7,175.5 270.9,242.1 196.9,252.6 "/>
<polygon class="st44" points="234.7,211.8 242.8,204.7 248.1,210.4 239.7,218.1 "/>
<polygon class="st15" points="117.1,284.8 122,356.5 129.4,357.8 137.5,289.7 "/>
<polygon class="st25" points="129.4,357.8 139.3,356.8 148.9,282.5 132.5,293.7 "/>
<polygon class="st48" points="34.2,247.8 32.4,272 132.5,293.7 140.2,284.8 133.7,276 "/>
<polygon class="st49" points="132.5,293.7 336,276.4 339.8,254.5 133.7,276 "/>
<polygon class="st38" points="664.8,340.2 676.3,338.4 683,321 664.8,325.4 "/>
<polygon class="st38" points="739.9,338.4 728.4,337.4 722.8,318.4 737.6,321 "/>
<polygon class="st26" points="706.2,211.9 720,206.5 743.8,204.9 745,226.9 736.6,265.4 749.9,313.9 751.2,336.6 739.9,338.4 
	734.3,329.1 713.1,332.5 710.5,343.5 697.5,345.3 698.4,261.3 "/>
<polygon class="st50" points="655.8,203.6 654.4,338.9 664.8,340.2 669.5,329.1 683.3,331.5 685.8,343.5 697.5,345.3 706.2,211.9 
	674.2,203.6 "/>
<polygon class="st51" points="655.8,203.6 695.7,197 743.8,204.9 706.2,211.9 "/>
<polygon class="st49" points="696.5,203.6 707.4,201.9 716.6,188 693.2,191.6 "/>
<polygon class="st48" points="675.6,189.4 684.7,201.6 696.5,203.6 695.5,195.2 686.3,189.8 "/>
<polygon class="st41" points="661.2,124.3 696.9,119.3 696.3,151 695.5,195.2 658.3,189.1 658.8,178.7 660.6,177.4 658.9,175.6 
	659.1,171.2 660.6,169.6 659.3,167 660.3,145 662,142.8 660.5,141 660.6,136.7 663.1,134.4 660.8,132.6 "/>
<polygon class="st48" points="696.9,119.3 730.1,125.3 730.5,133.9 728.2,135.8 730.7,138.4 730.9,142 729.2,143.8 731.1,146.5 
	732.1,168.1 729,170.7 732.4,172.9 732.5,176 731.1,178.6 732.7,180.2 733.2,189.8 695.5,195.2 "/>
<polygon class="st52" points="660.6,136.7 696.7,134 698.2,131.3 696.8,128.5 660.8,132.6 "/>
<polygon class="st52" points="696.5,143.6 698.5,141.1 696.6,138.9 660.5,141 660.3,145 "/>
<polygon class="st52" points="695.7,184.2 698.8,181.4 695.8,179.9 658.9,175.6 658.8,178.7 "/>
<polygon class="st52" points="695.9,175.1 697.4,173.1 696,171.1 659.3,167 659.1,171.2 "/>
<polygon class="st41" points="696.8,128.5 730.5,133.9 730.7,138.4 696.7,134 "/>
<polygon class="st41" points="696.6,138.9 730.9,142 731.1,146.5 696.5,143.6 "/>
<polygon class="st41" points="696,171.1 732.1,168.1 732.4,172.9 695.9,175.1 "/>
<polygon class="st41" points="695.8,179.9 732.5,176 732.7,180.2 695.7,184.2 "/>
<polygon class="st53" points="745,226.9 722.8,231.7 718.1,311.1 749.9,313.9 "/>
<polygon class="st54" points="665.6,215.7 695.5,220.3 694.5,226.9 665,221.6 "/>
<polygon class="st26" points="667.8,244.5 675.2,242.2 682.8,246.9 691.1,244.8 694.3,245.3 692.3,274.5 667.5,279.4 "/>
<polygon class="st38" points="675.2,242.2 674.2,271.5 673.9,279.9 662.8,284 664.8,240.5 "/>
<polygon class="st51" points="662.8,284 674.2,271.5 692.3,274.5 691.4,288.4 "/>
<polygon class="st54" points="675.2,242.2 677.6,255.1 682.8,257.3 685.3,249.4 683.4,243.5 "/>
<polygon class="st55" points="682.8,257.3 688.3,255.9 691.1,244.8 683.4,243.5 "/>
<polygon class="st14" points="655.8,203.6 677.6,207.2 683.4,243.5 664.8,240.5 662.8,284 670.6,285.1 669.5,329.1 664.8,340.2 
	654.4,338.9 "/>
<polygon class="st43" points="658.5,184.2 629.5,227.8 648.9,234.4 669.4,222.4 "/>
<polygon class="st43" points="562.1,164 539.3,198.1 542.7,214.4 555.4,218.2 563.9,214 566.8,185.2 "/>
<polygon class="st56" points="555.4,218.2 533.9,182.9 523.9,186.5 517.2,195.2 533.3,229.1 "/>
<polygon class="st43" points="564.9,258.6 560.8,290.4 571,306.9 589.4,303.8 607.4,274.3 "/>
<polygon class="st57" points="589.4,303.8 560.8,290.4 559.3,302.1 568.8,313.9 583.5,313.5 "/>
<polygon class="st58" points="557.1,316.7 549.7,321.3 537,332.4 560.1,334.1 577.3,332.4 578.2,322.2 562.1,312.8 "/>
<polygon class="st59" points="562.9,316.4 555.1,323.4 549.7,321.3 557.7,314.4 560.8,312.8 "/>
<polygon class="st56" points="591.9,280.6 597,298.4 613.3,306.9 629.5,302.5 638.8,259.9 604.5,269.9 "/>
<polygon class="st43" points="629.5,302.5 597,298.4 600.8,311.5 614.5,319.2 627.7,311.6 "/>
<polygon class="st58" points="603.8,321.7 597,337.4 613.5,339.7 626.9,337.4 624.9,325.6 617.8,321.1 614.2,320.1 610.8,320.1 "/>
<rect x="597" y="337.4" class="st60" width="29.9" height="4.6"/>
<polygon class="st59" points="617.8,324.2 616.7,331.7 608.1,331.7 611,323 614.2,322.2 "/>
<rect x="537" y="332.3" class="st60" width="40.3" height="4.6"/>
<polygon class="st61" points="564.9,258.6 591.9,280.6 638.8,259.9 606.3,255.4 590.8,245.8 581.3,252.9 "/>
<polygon class="st59" points="569.7,168.9 581.3,163.8 589.2,174.6 595.5,189.8 616.5,182.7 637.3,178.1 647,188.9 640.5,227.8 
	637.3,237.9 638.8,259.9 599.4,266.6 590.8,246.9 580.2,264.4 564.9,258.6 563.9,214 "/>
<polygon class="st57" points="643.5,160.8 635.7,152.7 634.5,160.1 629.7,168.1 "/>
<polygon class="st57" points="589.6,143.5 574.1,151.7 581.3,163.8 595.5,189.8 594.8,163.3 "/>
<polygon class="st47" points="640.5,227.8 637.3,178.1 658.5,184.2 "/>
<polygon class="st56" points="562.1,164 563.9,214 581.3,163.8 "/>
<polygon class="st32" points="642.9,78.7 600.6,62.2 583.9,67.3 568.8,137.1 589.6,143.5 592.4,152.6 595.3,158.5 614.4,168.9 
	630.1,159 653.9,131.8 663.5,116.9 666.2,101.6 "/>
<polygon class="st33" points="637.7,78.2 615.9,152.9 589.6,143.5 592,152.9 591.8,162.1 595.5,189.8 619.6,176 634.1,162.7 
	648,141.1 648.4,135 642.1,122.9 652.2,108.7 663.5,116.9 670.6,105.9 649,84.7 642.9,78.7 "/>
<polygon class="st33" points="594.8,113.7 607.9,95.1 624.4,89.7 605.5,83.8 600.6,89.8 593.7,102.2 "/>
<polygon class="st33" points="593.5,88.1 592.7,82 581.5,78.6 590.3,106.3 "/>
<polygon class="st37" points="642.1,122.9 653.9,131.8 648,141.1 "/>
<polygon class="st37" points="598.1,100 619.7,118.1 628.6,109.5 632.4,109.4 638.3,105.1 624.4,102.1 "/>
<polygon class="st37" points="590.9,98.7 576.1,103.5 576.7,100.6 579.6,95.4 "/>
<polygon class="st43" points="647.7,86.6 625.7,119.3 637.2,130 652.2,108.7 663.5,116.9 670.6,105.9 659.2,92.1 "/>
<polygon class="st36" points="589.6,89.7 602.6,93.2 598.1,100 594.8,113.7 591.3,114.4 587.7,112 590.9,98.7 "/>
<polygon class="st37" points="648.3,121.8 652.8,113.8 659.6,118.5 "/>
<polygon class="st43" points="624.4,89.7 611.3,80.8 605.5,83.8 "/>
<polygon class="st43" points="592.7,82 587.1,76.1 581.5,78.6 "/>
<polygon class="st37" points="578.9,116.8 608.3,124.7 596.3,133.9 583.3,130.1 "/>
<polygon class="st9" points="582.7,120.3 602.7,125.8 599.2,128.2 583.9,123.9 "/>
<polygon class="st37" points="587.7,112 590.8,117 594.8,113.7 "/>
<polygon class="st57" points="632.4,109.4 650.9,110.4 652.2,108.7 642.3,105.9 634.1,106.8 "/>
<polygon class="st37" points="589.6,143.5 624.6,153.7 591.8,162.1 "/>
<polygon class="st56" points="597.8,46.3 667.5,60.7 675.5,82.8 634.1,67.3 "/>
<polygon class="st61" points="637.7,78.2 670.6,105.9 675.5,82.8 646,68.3 634.1,69.7 "/>
<polygon class="st43" points="637.7,78.2 646,68.3 597.8,46.3 596.3,60.5 597.8,74 "/>
<polygon class="st56" points="597.8,46.3 566.2,38.7 583.9,67.3 597.8,74 "/>
<polygon class="st62" points="627,96.1 662.6,104.7 663.5,116.9 652.2,108.7 624.4,105.8 624.8,100.4 "/>
<polygon class="st62" points="593.5,88.1 600.6,89.8 601,92.8 599.1,96 592,94.2 591.3,91.6 "/>
<path class="st63" d="M571.3,82.8l22.2,5.3L591,98.7l-24.2,3.3L571.3,82.8L571.3,82.8z M600.6,89.8l26.4,6.3l-5.1,19.3L598.1,100
	L600.6,89.8z"/>
<polygon class="st56" points="613.5,169.4 643.5,160.8 637.3,178.1 595.5,189.8 "/>
<polygon class="st64" points="636.9,235.8 595.3,219.4 590.8,219.4 564.3,232.9 590.8,245.8 608.4,241.1 "/>
<polygon class="st56" points="595.5,189.8 595.3,219.4 590.8,246.9 590.8,219.4 "/>
<polygon class="st56" points="669.4,222.4 634,218.9 624.8,227.5 627.5,237.8 660.9,245.9 "/>
<polygon class="st61" points="627.7,311.6 600.8,311.5 603.8,321.7 611,323.1 614.2,320.1 617.8,324.3 624.9,325.6 "/>
<polygon class="st64" points="617.8,324.3 617.8,316.7 610.5,316 611,323.1 "/>
<polygon class="st61" points="583.5,313.5 559.3,302.1 558.6,306.9 562.9,316.4 578.2,322.2 "/>
<polygon class="st64" points="562.9,316.4 564.3,308.6 558.6,306.9 557.7,314.4 "/>
<polygon class="st33" points="533.9,182.9 527.6,172.9 516.9,175.5 507.7,186.3 517.2,195.2 "/>
<polygon class="st32" points="533.9,182.9 539.8,167.4 535.5,164.2 522.4,178.6 525.5,189.1 "/>
<polygon class="st33" points="527.6,172.9 515.4,152.8 510.5,155.7 518.8,175 "/>
<polygon class="st32" points="515.3,166.9 506,174.3 507.7,186.3 522.4,178.6 "/>
<polygon class="st37" points="634,218.9 629.2,211.9 624.8,218.9 "/>
<polygon class="st48" points="617.7,200.5 631.6,204.9 616.3,215.8 "/>
<polygon class="st49" points="605.7,204.9 617.7,200.5 618.2,207.8 611.9,212.9 "/>
<polygon class="st48" points="605.7,204.9 606.7,218.4 610,226.8 607.8,233.2 608.4,241.1 617.7,243.6 622,220.6 618.2,207.8 "/>
<polygon class="st49" points="618.2,207.8 631.6,204.9 627.2,240.5 617.7,243.6 "/>
<polygon class="st33" points="634,218.9 618.1,214.4 615.5,224.3 617.7,238.5 627.5,237.8 "/>
<polygon class="st32" points="618.1,214.4 606.7,218.4 607.8,233.2 617.7,238.5 "/>
<polygon class="st41" points="480.3,189.5 494.2,194 478.9,204.9 "/>
<polygon class="st48" points="468.3,194 480.3,189.5 480.8,196.8 474.5,202 "/>
<polygon class="st65" points="451.8,75.7 449.1,89.3 439.7,68.9 "/>
<polygon class="st34" points="445.6,322.1 451,328.9 453.4,335.1 450.6,344.4 445.5,344.4 443.7,331.5 "/>
<polygon class="st16" points="482.9,344.5 459.1,344.5 445.6,322.1 456.3,318.4 469.3,329.1 482.6,338.6 "/>
<polygon class="st34" points="405.3,327 410.7,333.9 414.1,341.6 410.7,349.5 403.7,349.5 402,335.2 "/>
<polygon class="st16" points="432.4,349.5 410.7,349.5 397.1,327 407.8,323.4 432.1,343.5 "/>
<polygon class="st34" points="366.9,137.8 356.7,159 376.5,177.9 381.3,140.6 "/>
<polygon class="st65" points="393.3,150.1 355.1,133.6 360.7,125.3 366.4,122.8 387,131.1 "/>
<polygon class="st66" points="442.7,170.1 447.2,167.6 453.7,166.7 466,205.4 465.7,217.1 452.7,229.7 445.4,216.1 "/>
<polygon class="st67" points="442.7,170.1 453.7,166.7 434.3,158.6 436.6,170.4 "/>
<polygon class="st3" points="466,205.4 472.8,208 475.4,213.5 473,222 452.7,229.7 "/>
<polygon class="st68" points="423.3,297.5 433.1,321.7 432.1,343.5 391.4,332.2 397.2,289.8 "/>
<polygon class="st69" points="434.3,158.6 414.6,168 403.1,162.2 400.8,180 401.3,193.4 434,196.3 451.1,181.7 "/>
<polygon class="st68" points="451.1,181.7 461.1,197.4 448.5,245.4 421.8,254.5 394.6,244.9 397.9,215.7 401.3,193.4 438.7,187.2 
	"/>
<polygon class="st4" points="461.1,197.4 397.9,215.7 391.7,195.8 401.3,193.4 438.6,184.9 451.1,181.7 "/>
<polygon class="st67" points="403.1,162.2 382.5,179.3 394.7,180.1 402.1,178.6 "/>
<polygon class="st66" points="382.5,179.3 370.2,213.8 380.1,218 389.9,217.5 401.3,193.4 402.1,178.6 "/>
<polygon class="st32" points="445.9,74.1 449.1,89.3 460.3,141.9 435,149.5 425.7,168.8 392.2,140.2 381.3,134.9 376.2,137.8 
	366.4,122.8 372.3,116 379.1,113.8 382.4,115.3 383.5,122.2 383.8,104.1 389.3,86.9 401.1,74.9 417.2,67.5 434,68.4 "/>
<polygon class="st33" points="389.3,86.9 399.9,96.5 414.1,156.6 430.3,155.9 433.2,167.8 431.4,186.6 403.1,162.2 393.3,150.1 
	389.3,142.4 385.7,140.6 383.5,122.2 383.7,113.1 385.7,108.5 384.7,101.4 "/>
<polygon class="st33" points="427.2,116.3 412.1,99.9 399.9,96.5 405.6,92.8 412.9,91.2 418.2,90.3 "/>
<polygon class="st33" points="425.7,88.1 430.5,86.4 436.9,84.1 443.5,85.5 435.3,92.6 431.3,103.8 "/>
<polygon class="st37" points="435,114.1 432,119.3 427.2,116.3 "/>
<polygon class="st36" points="418.2,90.3 427.2,116.3 435,114.1 425.7,88.1 "/>
<polygon class="st67" points="412.2,131.1 437,139.5 447.1,123.5 432.8,126.3 "/>
<polygon class="st37" points="371.2,123.7 378,119.3 382.2,128.3 "/>
<polygon class="st65" points="379.1,113.8 379.6,110.2 385.7,108.5 383.5,122.2 "/>
<polygon class="st34" points="355.1,133.6 354.9,110.3 370.7,96.2 389.3,86.9 385.7,108.5 379.1,113.8 366.4,122.8 "/>
<polygon class="st34" points="400.7,41.5 453.9,64.8 451.8,75.7 445.9,74.1 417.2,67.5 407.9,58.9 "/>
<polygon class="st16" points="354.9,110.3 354.9,81.8 400.7,41.5 417.2,67.5 389.3,86.9 "/>
<polygon class="st37" points="435,149.5 406.7,156.9 433.2,167.8 "/>
<polygon class="st37" points="389.3,136.9 393.3,150.1 385.7,140.6 386.6,136.9 "/>
<polygon class="st67" points="448.5,245.4 446.7,307.1 397.2,289.8 394.6,244.9 "/>
<polygon class="st70" points="448.5,245.4 448.6,283 469.3,329.1 432.1,343.5 397.2,289.8 "/>
<polygon class="st71" points="379.1,132 385.7,140.6 389.3,136.9 384.3,128.3 "/>
<path class="st65" d="M415.1,102c0,1.8-1.5,3.3-3.3,3.3s-3.3-1.5-3.3-3.3s1.5-3.3,3.3-3.3l0,0C413.6,98.8,415.1,100.2,415.1,102z"/>
<path class="st65" d="M440.8,94.5c0,1.8-1.5,3.3-3.3,3.3s-3.3-1.5-3.3-3.3s1.5-3.3,3.3-3.3l0,0C439.3,91.2,440.8,92.7,440.8,94.5
	C440.8,94.5,440.8,94.5,440.8,94.5z"/>
<polygon class="st3" points="397.2,289.8 469.3,329.1 448.5,245.4 "/>
<polygon class="st3" points="389.9,217.5 394.6,244.9 388.2,253.3 379.7,246.1 370.2,213.8 "/>
<polygon class="st33" points="394.6,244.9 395.3,255.9 405.8,258.3 408.1,254.9 "/>
<polygon class="st32" points="394.6,244.9 402,260.5 393.4,267.9 383.6,262.5 379.7,246.1 "/>
<polygon class="st33" points="402,260.5 404.2,273.6 391.4,273.8 383.6,262.5 "/>
<polygon class="st72" points="440.4,130 436.2,136.8 426.6,133.4 433.6,130.8 "/>
<polygon class="st9" points="416.6,130.3 426.6,133.4 440.4,130 444,124.1 432.8,127.7 "/>
<polygon class="st72" points="412.2,131.1 433,122.4 447.1,123.5 432.8,128.7 "/>
<polygon class="st34" points="430.5,86.4 436.9,82.4 443.5,85.5 "/>
<polygon class="st34" points="412.9,91.2 405.7,90.6 399.9,96.5 "/>
<polygon class="st32" points="472.9,202.6 466,205.4 467.1,211.1 473.7,214.8 "/>
<polygon class="st41" points="468.3,194 471,230.1 480.3,232.7 484.6,209.6 480.8,196.8 "/>
<polygon class="st48" points="480.8,196.8 494.2,194 489.8,229.6 480.3,232.7 "/>
<polygon class="st33" points="493.5,199.5 499.2,203.4 495.5,216.8 491,219.9 490.4,209.3 "/>
<polygon class="st32" points="493.5,199.5 485.8,202.1 486.8,216.9 491,219.9 "/>
</svg>
